<?xml version="1.0" standalone="no"?>
<!DOCTYPE svg PUBLIC "-//W3C//DTD SVG 20010904//EN"
 "http://www.w3.org/TR/2001/REC-SVG-20010904/DTD/svg10.dtd">
<svg version="1.0" xmlns="http://www.w3.org/2000/svg"
 width="500.000000pt" height="500.000000pt" viewBox="0 0 500.000000 500.000000"
 preserveAspectRatio="xMidYMid meet">
<metadata>
Created by potrace 1.11, written by Peter Selinger 2001-2013
</metadata>
<g transform="translate(0.000000,500.000000) scale(0.100000,-0.100000)"
fill="#000000" stroke="none">
<path d="M512 3008 l3 -213 163 -1 c108 0 163 3 164 10 0 6 2 31 2 56 l2 45
689 2 c380 1 716 3 748 3 l57 0 0 155 0 155 -915 0 -915 0 2 -212z"/>
<path d="M2677 3210 c-39 -12 -74 -52 -87 -100 -6 -21 -9 -101 -8 -177 l3
-138 163 -1 c89 -1 163 2 163 5 1 3 3 29 3 56 l2 50 577 2 c317 1 578 -1 578
-5 1 -4 2 -29 3 -57 l1 -50 165 0 165 0 3 147 c2 131 0 152 -18 190 -11 24
-33 52 -48 63 -26 20 -44 20 -832 22 -443 1 -818 -2 -833 -7z"/>
<path d="M573 2642 l-63 -3 0 -154 0 -155 915 0 916 0 -3 156 -3 157 -850 1
c-467 0 -878 0 -912 -2z"/>
<path d="M2608 2642 l-28 -3 0 -96 c0 -105 16 -149 68 -188 26 -19 47 -20 727
-25 l700 -5 -2 -125 c0 -69 -2 -128 -2 -132 -1 -4 -261 -6 -578 -5 l-578 2 1
50 c0 28 -3 52 -7 55 -4 3 -78 5 -166 5 l-158 0 0 -162 c0 -177 3 -188 69
-237 27 -21 37 -21 814 -24 567 -2 799 0 829 9 23 6 56 26 75 46 l33 34 3 336
c3 358 1 376 -45 420 -46 44 -67 45 -918 47 -445 0 -822 0 -837 -2z"/>
<path d="M514 2171 c-2 -2 -4 -98 -4 -213 l0 -208 915 0 915 0 0 155 0 155
-82 0 c-46 1 -381 1 -745 1 -616 0 -663 1 -664 17 -1 9 -2 35 -3 57 l-1 40
-163 0 c-90 0 -166 -2 -168 -4z"/>
</g>
</svg>
